<?xml version="1.0" encoding="UTF-8"?>
<svg width="120px" height="120px" viewBox="0 0 120 120" version="1.1" xmlns="http://www.w3.org/2000/svg" xmlns:xlink="http://www.w3.org/1999/xlink">
    <title>Artboard</title>
    <g id="Artboard" stroke="none" stroke-width="1" fill="none" fill-rule="evenodd">
        <rect id="Rectangle" fill="#1B2127" x="0" y="0" width="120" height="120" rx="40"></rect>
        <g id="icon" transform="translate(39.000000, 34.000000)" fill="#FFFFFF" fill-rule="nonzero">
            <path d="M39.3585937,2.6 C37.5539062,2.8275 35.2734375,3.16875 32.8453125,3.16875 C29.0554687,3.16875 25.6265625,2.2425 22.1484375,1.51125 C18.6210938,0.76375 14.9789063,0 11.1234375,0 C3.42890625,0 0.8203125,1.64125 0.5578125,1.82 L0,2.21 L0,2.6325 L0,28.90875 L0,52 L2.625,52 L2.625,28.71375 C3.609375,28.3075 6.2015625,27.5925 11.1398438,27.5925 C14.7164063,27.5925 18.0632813,28.94125 21.6234375,29.705 C25.2328125,30.46875 28.9734375,31.265 33.0257813,31.265 C35.4375,31.265 37.5703125,30.94 39.375,30.72875 C40.359375,30.615 41.2289063,30.50125 42,30.37125 L42,4.875 L42,2.19375 C41.2289062,2.34 40.3429687,2.47 39.3585937,2.6 Z" id="Path"></path>
        </g>
    </g>
</svg>